<svg data-name="Lager 1" xmlns="http://www.w3.org/2000/svg" viewBox="0 0 256 256"><ellipse cx="128.08" cy="130.12" rx="53.29" ry="67.74" fill="none" stroke="currentColor" stroke-linecap="round" stroke-linejoin="round" stroke-width="11.169"/><path d="M177.46 94.72s24.2-5.7 25.12-34.15M168.43 178s24.2 5.7 25.12 34.15M185.59 135.45h21.21M84.86 178s-24.2 5.7-25.12 34.15M81.25 94.72S57.05 89 56.13 60.57M70.41 135.45H49.2M100.6 60.8c2.61-9.67 13.9-16.94 27.43-16.94s24.64 7.14 27.37 16.7" fill="none" stroke="currentColor" stroke-linecap="round" stroke-linejoin="round" stroke-width="11.169"/><path d="M105.28 120.84l-2.11.78 2.11.75 17.06 5.69v8.43l-27.55-11.42v-7l27.55-11.42v8.4zM133.2 115v-8.37l28 11.39v7.06l-28 11.43v-8.41l17.83-6 1.9-.62-1.87-.63z" fill="currentColor"/></svg>
